<svg width="128" height="128" xmlns="http://www.w3.org/2000/svg">
 <title/>

 <g>
  <title>Layer 1</title>
  <path fill="#ffffff" id="svg_1" d="m128,36.65c0,-9.36 -3.38,-13.87 -6.22,-16a10.76,10.76 0 0 0 -9.33,-1.92c-6,1.71 -9.77,9 -11.34,12.71c-0.27,-0.1 -0.53,-0.19 -0.81,-0.27c-3.3,-0.94 -6.94,-2.36 -10.8,-3.86c-8,-3.12 -17.11,-6.65 -25.53,-6.65c-9.3,0 -20.08,4.24 -28.74,7.64c-2.81,1.11 -5.47,2.16 -7.69,2.9c-0.21,0.07 -0.43,0.17 -0.64,0.26c-1.57,-3.69 -5.36,-11 -11.35,-12.73a10.75,10.75 0 0 0 -9.33,1.92c-2.84,2.13 -6.22,6.64 -6.22,16c0,14.41 17.76,42.35 18.52,43.57l0,0c2.53,7.47 5.25,13.88 6.7,15.36c8.14,8.26 26.93,14 38.71,14s30.64,-5.76 38.71,-14c1.45,-1.48 4.29,-8.05 6.91,-15.57c1.71,-2.6 18.45,-29.37 18.45,-43.36zm-14.45,-14.08a6.72,6.72 0 0 1 5.82,1.26c3,2.25 4.63,6.8 4.63,12.82c0,7 -4.94,18.07 -9.63,27a38.56,38.56 0 0 0 1,-6.93c0.17,-7.82 -4.47,-18.44 -10.78,-23.3c1.41,-3.51 4.7,-9.63 8.96,-10.85zm-109.55,14.08c0,-6 1.64,-10.57 4.63,-12.82a6.71,6.71 0 0 1 5.82,-1.26c4.25,1.21 7.53,7.36 9,10.88c-5.94,4.51 -10.65,13.74 -10.65,22a45.91,45.91 0 0 0 1.29,9c-4.86,-9.07 -10.09,-20.6 -10.09,-27.8zm95.82,56.18c-6.44,6.59 -23.82,12.82 -35.82,12.82c-12.15,0 -29.24,-6.12 -35.86,-12.83c-2,-2.11 -11.36,-28 -11.36,-37.37c0,-8.3 6,-18.44 12.06,-20.47c2.31,-0.77 5,-1.83 7.89,-3c8.27,-3.25 18.7,-7.33 27.27,-7.33c7.67,0 16,3.24 24.08,6.38c4,1.53 7.67,3 11.16,4a8.24,8.24 0 0 1 1.86,0.84a2.26,2.26 0 0 0 0.26,0.16c5.28,3.36 10.22,13.05 10,20.63c-0.18,9.11 -9.62,34.16 -11.54,36.17z"/>
  <path fill="#ffffff" id="svg_2" d="m85.64,72.3c-0.15,0 -15,2.72 -21.64,2.72s-21.49,-2.69 -21.64,-2.72a2,2 0 0 0 -0.72,3.94c0.63,0.11 15.36,2.76 22.36,2.76s21.73,-2.67 22.36,-2.78a2,2 0 0 0 -0.72,-3.94l0,0.02z"/>
  <path fill="#ffffff" id="svg_3" d="m85.64,59.3c-0.15,0 -15,2.72 -21.64,2.72s-21.49,-2.69 -21.64,-2.72a2,2 0 1 0 -0.72,3.94c0.63,0.11 15.36,2.76 22.36,2.76s21.73,-2.67 22.36,-2.78a2,2 0 0 0 -0.72,-3.94l0,0.02z"/>
  <path fill="#ffffff" id="svg_4" d="m85.64,46.3c-0.15,0 -15,2.72 -21.64,2.72s-21.49,-2.69 -21.64,-2.72a2,2 0 1 0 -0.72,3.94c0.63,0.11 15.36,2.76 22.36,2.76s21.73,-2.67 22.36,-2.78a2,2 0 0 0 -0.72,-3.94l0,0.02z"/>
 </g>
</svg>