<svg width="128" height="128" xmlns="http://www.w3.org/2000/svg">
 <title/>

 <g>
  <title>Layer 1</title>
  <path fill="#ffffff" id="svg_1" d="m33.87,63.71a2,2 0 0 0 -2,2l0,58.29l-7.4,0l0,-36.94a2,2 0 0 0 -4,0l0,36.94l-7.41,0l0,-58.29a2,2 0 0 0 -4,0l0,60.29a2,2 0 0 0 2,2l22.81,0a2,2 0 0 0 2,-2l0,-60.29a2,2 0 0 0 -2,-2z"/>
  <path fill="#ffffff" id="svg_2" d="m32.61,49a14.93,14.93 0 0 0 1.3,-20.72c-0.07,-0.08 -0.14,-0.17 -0.21,-0.24a15,15 0 0 0 -22.47,0a1.71,1.71 0 0 0 -0.18,0.2a14.95,14.95 0 0 0 1.27,20.76a12.79,12.79 0 0 0 -12.32,12.8l0,29.28a2,2 0 0 0 4,0l0,-29.28a8.79,8.79 0 0 1 8.78,-8.8l1.89,0l6.15,9a2,2 0 0 0 3.3,0l6.14,-9l1.89,0a8.79,8.79 0 0 1 8.78,8.78l0,29.3a2,2 0 0 0 4,0l0,-29.28a12.79,12.79 0 0 0 -12.32,-12.8zm-3.74,-20a18.54,18.54 0 0 1 -6.4,1.07a18.6,18.6 0 0 1 -6.41,-1.07a10.9,10.9 0 0 1 12.81,0zm-17.41,9a10.87,10.87 0 0 1 1.69,-5.84a21.58,21.58 0 0 0 9.32,2a21.57,21.57 0 0 0 9.31,-2a10.88,10.88 0 0 1 1.7,5.84a11,11 0 1 1 -22,0l-0.02,0zm11,19.3l-2.94,-4.3l5.89,0l-2.95,4.3z"/>
  <path fill="#ffffff" id="svg_3" d="m116.92,63.61a2,2 0 0 0 -2,2l0,58.39l-7.42,0l0,-37a2,2 0 0 0 -4,0l0,37l-7.42,0l0,-58.39a2,2 0 0 0 -4,0l0,60.39a2,2 0 0 0 2,2l22.84,0a2,2 0 0 0 2,-2l0,-60.39a2,2 0 0 0 -2,-2z"/>
  <path fill="#ffffff" id="svg_4" d="m115.65,48.92a15,15 0 0 0 1.35,-20.76l-0.21,-0.24a15,15 0 0 0 -22.5,0a1.29,1.29 0 0 0 -0.19,0.21a15,15 0 0 0 1.29,20.78a12.8,12.8 0 0 0 -12.39,12.79l0,29.3a2,2 0 0 0 4,0l0,-29.3a8.81,8.81 0 0 1 8.8,-8.8l1.9,0l6.15,9a2,2 0 0 0 3.3,0l6.15,-9l1.9,0a8.81,8.81 0 0 1 8.8,8.8l0,29.3a2,2 0 0 0 4,0l0,-29.3a12.8,12.8 0 0 0 -12.35,-12.78zm-3.72,-20a19.51,19.51 0 0 1 -12.86,0a11,11 0 0 1 12.86,0zm-17.46,9a10.94,10.94 0 0 1 1.7,-5.92a22.87,22.87 0 0 0 18.66,0a11,11 0 1 1 -20.36,5.85l0,0.07zm11,19.35l-3,-4.31l5.9,0l-2.9,4.31z"/>
  <path fill="#ffffff" id="svg_5" d="m83.08,29.91a2,2 0 0 0 1.42,0.59a2,2 0 0 0 1.41,-0.59l6.5,-6.5a2,2 0 0 0 0,-2.82l-6.5,-6.5a2,2 0 0 0 -2.83,2.82l3.09,3.09l-44.34,0l3,-3a2,2 0 0 0 -2.83,-2.82l-6.5,6.5a2,2 0 0 0 0,2.83l6.5,6.49a2,2 0 0 0 2.83,-2.83l-3.19,-3.17l44.53,0l-3.09,3.09a2,2 0 0 0 0,2.82z"/>
  <path fill="#ffffff" id="svg_6" d="m50.41,7.41l0.59,-0.58l0,7.17a2,2 0 0 0 4,0l0,-12a2,2 0 0 0 -1.23,-1.85a2,2 0 0 0 -2.18,0.44l-4,4a2,2 0 0 0 2.82,2.82z"/>
  <path fill="#ffffff" id="svg_7" d="m61,16a2,2 0 0 0 2,-2l0,-4c0,-1.84 1,-2.5 2,-2.5s2,0.66 2,2.5l0,4a2,2 0 0 0 4,0l0,-4c0,-1.84 1,-2.5 2,-2.5s2,0.66 2,2.5l0,4a2,2 0 0 0 4,0l0,-4c0,-4.27 -3,-6.5 -6,-6.5a5.93,5.93 0 0 0 -4,1.55a5.93,5.93 0 0 0 -4,-1.55a6,6 0 0 0 -3,0.79a2,2 0 0 0 -3,1.71l0,8a2,2 0 0 0 2,2z"/>
 </g>
</svg>