<svg width="128" height="128" xmlns="http://www.w3.org/2000/svg">
 <title/>

 <g>
  <title>Layer 1</title>
  <path fill="#ffffff" id="svg_1" d="m127.26,109.23a7.54,7.54 0 0 0 -2.69,-2.42a5.45,5.45 0 0 0 0.68,-1.39c1.24,-3.86 -1.83,-5.85 -4.08,-7.3l-0.49,-0.31a79.59,79.59 0 0 0 -8.46,-3.81a5,5 0 0 0 1.49,-3a6.15,6.15 0 0 0 -0.34,-2.57a7,7 0 0 0 2.61,-2a6.11,6.11 0 0 0 1.18,-4.78a4.63,4.63 0 0 0 -1.9,-3.16a7.36,7.36 0 0 0 -3.39,-1.26a5.13,5.13 0 0 0 0.13,-1.53c-0.26,-4 -3.85,-4.77 -6.48,-5.29l-0.56,-0.12c-2,-0.4 -12.36,-0.47 -15.75,-0.43l0.72,-0.73c3.07,-3.13 4.36,-7.13 3.37,-10.63a5.5,5.5 0 0 0 -3.58,-4.11l0,0c-3.33,-0.83 -6.34,2.25 -8.33,4.28c-0.38,0.39 -0.9,0.92 -1.09,1.06l0,0c-0.45,0.27 -1.61,1 -3.79,2.49c-3.72,2.47 -9.23,6.14 -12.74,8.27c-2.94,0 -6.21,-0.09 -8.06,-0.12l-1.47,-0.37c2.57,-2.7 6.46,-7.16 8.65,-11.45c2,-3.93 2,-8.1 0,-11.16a5.51,5.51 0 0 0 -4.66,-2.82c-3.16,0.2 -5.66,3.56 -7.94,7c-0.29,0.44 -0.65,1 -0.74,1.09c-0.29,0.28 -1.71,1.29 -3,2.18c-3.55,2.53 -8.89,6.36 -11.75,9.61c-0.95,1.07 -4.44,4.88 -7.52,8.25c-2.5,2.73 -4.66,5.09 -5.15,5.64s-1.45,1.55 -2.5,2.62c-1.2,1.24 -2.44,2.52 -3.22,3.39c-1.34,0.83 -8.63,2.42 -14.74,3.44a2,2 0 1 0 0.66,3.94c10,-1.67 15.75,-3.23 17,-4.64c0.71,-0.8 2,-2.15 3.18,-3.34s2.1,-2.16 2.63,-2.77s2.72,-3 5.1,-5.58c3.09,-3.38 6.6,-7.21 7.57,-8.31c2.56,-2.9 7.7,-6.57 11.1,-9a26.52,26.52 0 0 0 3.6,-2.77a16,16 0 0 0 1.1,-1.54c0.85,-1.27 3.41,-5.13 4.81,-5.22a2.8,2.8 0 0 1 1.38,1.49c0.44,0.87 1.28,3.27 -0.46,6.68c-2.48,4.86 -7.67,10.24 -9.6,12.16c-3.49,-0.75 -5.8,-0.6 -6.86,0.49a2,2 0 0 0 2.5,3.09c0.27,0 1.47,-0.21 4.48,0.55l5.09,1.28a1.74,1.74 0 0 0 0.45,0.06c1.28,0 12.56,0.25 14.64,0.11c1.1,-0.07 6.19,-0.21 10.68,-0.34l3.38,-0.1l0.16,0a1.73,1.73 0 0 0 0.32,0l3.91,-0.13c1.67,-0.11 14.18,0 15.66,0.33l0.59,0.12c2.83,0.57 3.22,0.84 3.27,1.62a1.61,1.61 0 0 1 -0.69,1.36l-40.32,4.67a2,2 0 0 0 0.23,4l0.23,0l40.8,-4.77l0.09,0c1,-0.16 3.56,-0.26 4.58,0.49a0.72,0.72 0 0 1 0.31,0.52a2.1,2.1 0 0 1 -0.34,1.72a4.9,4.9 0 0 1 -2.92,1.32l-0.18,0l-41.38,7.28a2,2 0 0 0 0.35,4l0.35,0l40.32,-7.09a2.07,2.07 0 0 1 0.28,1.24c-0.06,0.28 -1,1.66 -4.34,2.79c-3.5,1.19 -10,2.69 -10.27,2.77l0,0l-29.75,6.42a2,2 0 0 0 0.42,4a2.15,2.15 0 0 0 0.43,0l29.51,-6.37a0.71,0.71 0 0 1 0.65,0.61c0.18,0.74 -1.24,1.66 -2.73,2.11c-0.75,0.23 -2.15,0.76 -3.92,1.43c-1.61,0.61 -3.68,1.39 -5.68,2.1a1.9,1.9 0 0 0 -0.4,0.14a31.63,31.63 0 0 1 -5.84,1.65c-2.35,0.14 -5.8,1.45 -9.79,3c-2.07,0.79 -4.21,1.6 -6.22,2.25a77.13,77.13 0 0 1 -9.33,2.12l-0.24,0c-6.16,1.07 -13,1.82 -16.37,1.51c-6.32,-0.58 -9.94,0 -19.33,3c-10.22,3.12 -14.75,3.76 -14.79,3.76a2,2 0 0 0 0.27,4l0.27,0c0.19,0 4.85,-0.69 15.48,-4.09c9.35,-3 12.34,-3.32 17.73,-2.81c3.71,0.34 10.64,-0.42 16.88,-1.48a55.09,55.09 0 0 0 12,3.56c1.92,0.41 3.73,0.8 5.49,1.27c6.92,1.85 27.77,3.51 28,3.53s0.68,0 1,0c3.67,0 6.21,-1.69 6.58,-4.46a4.56,4.56 0 0 0 0.05,-0.73c2.22,0.29 4.9,0.58 6.89,0.68c4.42,0.2 7.74,-1 8.82,-3.21a6,6 0 0 0 0.63,-2.52a6.93,6.93 0 0 0 3.16,-0.88a6.07,6.07 0 0 0 2.85,-4a4.63,4.63 0 0 0 -0.57,-3.63zm-46.67,-39.1l-9.23,0.28c2.58,-1.68 5.25,-3.46 7.35,-4.86c1.76,-1.17 3.29,-2.18 3.66,-2.4l0,0a10.2,10.2 0 0 0 1.87,-1.67c1,-1 3.37,-3.42 4.47,-3.21a2.89,2.89 0 0 1 0.85,1.83c0.15,1 0.22,3.5 -2.48,6.22c-1.91,1.93 -3,3 -3.56,3.62a1.14,1.14 0 0 1 -0.11,0.11l-2.82,0.08zm26.08,27.09c0.52,-0.18 1,-0.37 1.48,-0.57c2.43,0.92 9.13,3.71 10.34,4.5l0.51,0.33c2.42,1.57 2.68,2 2.44,2.71a1.58,1.58 0 0 1 -1.14,1l-20,-5.32a0.13,0.13 0 0 1 0,-0.06a6.39,6.39 0 0 0 -0.22,-0.7c2.12,-0.54 4.71,-1.25 6.59,-1.89zm-8.48,26.78c-5.35,-0.42 -21.83,-2 -27.26,-3.4c-1.86,-0.5 -3.8,-0.92 -5.68,-1.32s-3.5,-0.76 -5.22,-1.2c1.15,-0.28 2.17,-0.56 3,-0.83c1.3,-0.42 2.62,-0.9 3.95,-1.39l34.14,6.37a0.69,0.69 0 0 1 0.39,0.81c-0.11,0.73 -1.78,1.05 -3.32,0.96zm19.45,-5.48c-0.16,0.24 -1.58,1.16 -5.06,1c-3.67,-0.17 -10.17,-1.14 -10.56,-1.2l-27.71,-5.16a16.8,16.8 0 0 1 3.74,-0.93a30.64,30.64 0 0 0 6.61,-1.76l33.17,6.8a2,2 0 0 1 -0.19,1.22l0,0.03zm6.33,-6.55a2.07,2.07 0 0 1 -1,1.47a4.92,4.92 0 0 1 -3.2,0.16l-0.06,0l-0.11,0l-27.86,-5.71c1.35,-0.52 2.48,-0.94 3,-1.1a8.91,8.91 0 0 0 4.59,-2.93l20.3,5.4l0.08,0c1,0.23 3.41,1.07 4.08,2.15a0.66,0.66 0 0 1 0.21,0.53l-0.03,0.03z"/>
  <path fill="#ffffff" id="svg_2" d="m77,14l49,0a2,2 0 0 0 2,-2l0,-3a2,2 0 0 0 -4,0l0,1l-5,0l0,-8a2,2 0 0 0 -2,-2l-31.65,0a2,2 0 0 0 0,4l17.65,0l0,6l-26,0c-3.78,0 -8,2.88 -8,7l0,10a2,2 0 0 0 2,2l16,0a2,2 0 0 0 2,-2l0,-3l35,0l0,1a2,2 0 0 0 4,0l0,-3a2,2 0 0 0 -2,-2l-39,0a2,2 0 0 0 -2,2l0,3l-12,0l0,-8c0,-1.62 2.2,-3 4,-3zm30,-10l8,0l0,6l-8,0l0,-6z"/>
  <path fill="#ffffff" id="svg_3" d="m71,33a2,2 0 0 0 -2,2l0,24a2,2 0 0 0 4,0l0,-24a2,2 0 0 0 -2,-2z"/>
  <path fill="#ffffff" id="svg_4" d="m79,33a2,2 0 0 0 -2,2l0,18a2,2 0 0 0 4,0l0,-18a2,2 0 0 0 -2,-2z"/>
  <path fill="#ffffff" id="svg_5" d="m87,33a2,2 0 0 0 -2,2l0,14a2,2 0 0 0 4,0l0,-14a2,2 0 0 0 -2,-2z"/>
 </g>
</svg>