<svg width="128" height="128" xmlns="http://www.w3.org/2000/svg">
 <title/>

 <g>
  <title>Layer 1</title>
  <path fill="#ffffff" id="svg_1" d="m69.41,9.59a2,2 0 0 0 -2.82,0c-0.85,0.84 -8.26,8.44 -8.26,14.74a9.67,9.67 0 0 0 19.34,0c0,-6.33 -7.41,-13.9 -8.26,-14.74zm-1.41,20.41a5.67,5.67 0 0 1 -5.67,-5.67c0,-3.19 3.34,-7.73 5.67,-10.39c2.28,2.64 5.67,7.22 5.67,10.39a5.67,5.67 0 0 1 -5.67,5.67z"/>
  <path fill="#ffffff" id="svg_2" d="m54,30l-10,0l0,-9a2,2 0 0 0 -2,-2l-4,0l0,-15l30,0a2,2 0 0 0 0,-4l-66,0a2,2 0 0 0 -2,2a11,11 0 0 0 11,11l7,0l0,6l-4,0a2,2 0 0 0 -2,2l0,9l-10,0a2,2 0 0 0 -2,2l0,94a2,2 0 0 0 2,2l52,0a2,2 0 0 0 2,-2l0,-47a2,2 0 0 0 -4,0l0,45l-48,0l0,-90l48,0l0,16a2,2 0 0 0 4,0l0,-18a2,2 0 0 0 -2,-2zm-49.71,-26l29.71,0l0,5l-23,0a7,7 0 0 1 -6.71,-5zm17.71,9l12,0l0,6l-12,0l0,-6zm-6,17l0,-7l24,0l0,7l-24,0z"/>
  <path fill="#ffffff" id="svg_3" d="m127.78,64.57a2,2 0 0 0 -2.69,-0.87c-11.54,5.91 -43.09,21.23 -50.69,21.23c-3.77,0 -11.72,-3.93 -20.4,-9.14c2.44,-0.48 5.08,-1.23 7.68,-2a40.26,40.26 0 0 1 6.67,-1.59a99.39,99.39 0 0 1 21.65,1.62a2,2 0 0 0 2.36,-1.57a2,2 0 0 0 -1.56,-2.35a102.37,102.37 0 0 0 -22.63,-1.67a39.28,39.28 0 0 0 -7.58,1.77c-3.33,1 -9.7,2.78 -12.33,2.24l-1.19,-0.77a5.37,5.37 0 0 1 -0.61,-4.94c0.71,-1.87 3.22,-5.32 12,-7.3a76.72,76.72 0 0 1 11.24,-1.68c2.32,-0.21 4.94,-0.46 8.48,-0.93c1.3,-0.18 2.68,-1 4.76,-2.15a67.37,67.37 0 0 1 24,-8.67c12.46,-2.14 17.73,0.13 17.76,0.15a2,2 0 1 0 1.72,-3.61c-0.25,-0.12 -6.25,-2.88 -20.16,-0.48a70.91,70.91 0 0 0 -25.33,9.14a17,17 0 0 1 -3.3,1.65c-3.46,0.46 -6,0.71 -8.32,0.92c-1.48,0.14 -2.84,0.27 -4.22,0.44a67.74,67.74 0 0 1 -6.2,-3.24c-6.76,-3.77 -11.76,-6.47 -14.51,-6.47c-2.25,0 -3.82,0.63 -4.66,1.88l-0.07,0.11c-2.31,-1.42 -4.79,-2.89 -7.26,-4.12c-6.16,-3.09 -12.55,-1.64 -15.34,0.08a4.08,4.08 0 0 0 -2,2.9a5.71,5.71 0 0 0 1.05,3.91a7.2,7.2 0 0 0 0.66,2.84c1.6,3.72 14.3,13.91 27.69,22.67a5.11,5.11 0 0 0 1.88,1.21c11.26,7.22 22.67,13.15 28.07,13.15c9.9,0 48.18,-19.45 52.51,-21.67a2,2 0 0 0 0.87,-2.69zm-83.4,-16.27c1.93,0 8.58,3.72 12.56,5.93l1.55,0.86l-0.93,0.2l-0.61,0.16c-2,-0.91 -8.17,-3.76 -10,-4.78c-1.08,-0.58 -2.34,-1.34 -3.69,-2.17l0,-0.08a4.41,4.41 0 0 1 1.12,-0.12zm-13.78,-2.56c3.07,1.54 6.25,3.51 9,5.25c2,1.21 3.78,2.35 5.35,3.2c1.19,0.65 3.92,1.94 6.34,3.07a25.42,25.42 0 0 0 -2.45,1.22c-6.16,-3.35 -9.55,-5.56 -12,-7.19a40.14,40.14 0 0 0 -8.61,-4.62a19.41,19.41 0 0 0 -7.73,-1.67a13.25,13.25 0 0 1 10.1,0.74zm-10.17,4.58a3.52,3.52 0 0 1 -0.33,-1.22c0.51,-0.21 2.48,-0.32 6.72,1.31a35.86,35.86 0 0 1 7.85,4.23c2.32,1.52 5.4,3.53 10.7,6.47a11.16,11.16 0 0 0 -2.65,4a9.08,9.08 0 0 0 -0.59,3.06c-10.97,-7.52 -20.57,-15.24 -21.7,-17.85z"/>
 </g>
</svg>