<svg width="128" height="128" xmlns="http://www.w3.org/2000/svg">
 <title/>

 <g>
  <title>Layer 1</title>
  <path fill="#ffffff" id="svg_1" d="m64,0a64,64 0 1 0 64,64a64.07,64.07 0 0 0 -64,-64zm0,4a59.79,59.79 0 0 1 41,16.21l-84.79,84.79a60,60 0 0 1 43.79,-101zm0,120a59.79,59.79 0 0 1 -41,-16.21l84.79,-84.79a60,60 0 0 1 -43.79,101z"/>
  <path fill="#ffffff" id="svg_2" d="m121,35.61a2,2 0 0 0 -2.39,-1.61l-20.25,4a2.13,2.13 0 0 0 -0.33,0.11a11.85,11.85 0 0 0 -1.59,0.26l-5.44,1.63l-0.71,0c-0.76,0 -1.59,-0.61 -3.57,-2.11l-1.17,-0.89a82.8,82.8 0 0 0 -8.4,-5.12c-1.75,-1 -3.41,-1.92 -4.35,-2.54c-3.24,-2.16 -9.07,-2 -11.86,-1.08a38.2,38.2 0 0 0 -10.25,6.48a88.26,88.26 0 0 0 -8.93,1.05c-7.71,1.55 -10.93,0.87 -10.93,0.87l0,0l-10.78,-2.47l-8.17,-4a2,2 0 1 0 -1.76,3.6l6.88,3.37c-3.88,14.35 -10.71,39.45 -11.34,41.34a2.87,2.87 0 0 0 0.34,2.5c1.53,2.5 7.81,3.81 11.42,4.36a1.53,1.53 0 0 0 0.3,0a2,2 0 0 0 1.7,-0.94l2.22,-3.55a6.76,6.76 0 0 0 0.79,0.71a6.38,6.38 0 0 0 6.6,0.57a6,6 0 0 0 0.37,1.18a9.71,9.71 0 0 0 6.8,5.46a7.71,7.71 0 0 0 4.72,-0.4a8.51,8.51 0 0 0 2.4,4a8.16,8.16 0 0 0 8.45,2.35a5.43,5.43 0 0 0 3.23,3.16a8.62,8.62 0 0 0 2.8,0.47a10.22,10.22 0 0 0 5.93,-2.12a5,5 0 0 0 1.79,1.53a5.42,5.42 0 0 0 2.51,0.58a8,8 0 0 0 2.58,-0.46a7.24,7.24 0 0 0 4.09,-3.9a10.73,10.73 0 0 0 6.54,-1.35a7.64,7.64 0 0 0 3,-4.29a7.56,7.56 0 0 0 6.56,-1.87a6.81,6.81 0 0 0 2.34,-5.26a10.47,10.47 0 0 0 1.86,-0.39a11.87,11.87 0 0 0 5.92,5.74a13.89,13.89 0 0 0 5.77,1.27a10.61,10.61 0 0 0 4.74,-1c8.39,-4.19 9.83,-15.72 4.41,-35.23c-1.69,-6.1 -4.66,-9.51 -7.77,-11.39l11.32,-2.23a2,2 0 0 0 1.61,-2.39zm-58.8,-3.53c2.24,-0.75 6.55,-0.61 8.39,0.61c1,0.7 2.7,1.63 4.61,2.7a82.32,82.32 0 0 1 8,4.83l1.12,0.84c2.4,1.83 3.86,2.93 6,2.93c0.41,0 10.06,0.12 12.4,10.27c2.54,11 2.24,20.47 1.23,21.93a3.94,3.94 0 0 1 -2.8,1.6a5.22,5.22 0 0 1 -1.7,-0.14a7.79,7.79 0 0 0 -1,-9.22c-1.75,-1.74 -25.4,-22 -28.91,-24.66c-4.54,-3.39 -8.14,-1.77 -10.77,-0.06c-1.93,1.28 -4.94,5.91 -5.71,7.46c-0.55,0.84 -4.06,3.29 -6.67,3.21a2.77,2.77 0 0 1 -2.5,-1.56c0,-0.44 1,-1.8 1.72,-2.79a42.42,42.42 0 0 0 2.48,-3.63a17.11,17.11 0 0 0 2,-4.21a6.15,6.15 0 0 1 1.29,-2.37c2.19,-2.96 8.62,-7.01 10.82,-7.74zm-45.5,49.07a26.23,26.23 0 0 1 -7,-2.08c1.52,-5.14 9.08,-33 11.14,-40.6l7.46,1.72c-0.3,4.51 -1.1,16.92 -2.41,21.51a70.73,70.73 0 0 1 -4,10.47a9.93,9.93 0 0 0 -1.54,3.19c0,0.06 -0.09,0.11 -0.13,0.18l-3.52,5.61zm8.09,-2.78a1.5,1.5 0 0 1 -0.69,-1a3.72,3.72 0 0 1 0.52,-2a16,16 0 0 1 2.56,0.63a3.3,3.3 0 0 1 1.62,1.69c-1.06,0.72 -2.8,1.61 -4.01,0.68zm12.34,6.53a5.75,5.75 0 0 1 -4.13,-3.22a4.67,4.67 0 0 1 0,-2.33l4.71,-4.72c1.48,-1.47 2.8,-2.11 4,-2a6,6 0 0 1 3.26,2c1.79,1.78 2.16,2.53 -1.94,7.3l-0.75,0.87c-0.81,0.78 -3.2,2.59 -5.15,2.1zm9,4.63c-2.1,-2.11 -1.33,-3.49 -1,-3.9l0.1,-0.12q0.66,-0.74 1.29,-1.47c1.82,-2.08 5.11,-5.8 6.57,-7.26s4.33,-2.37 7.08,0.39c1.85,1.84 1.08,3.49 0.72,4l-9.06,9.06c-0.54,0.43 -3.02,2.01 -5.73,-0.7l0.03,0zm10.19,4.58a2,2 0 0 1 -1.06,-1.59l8.58,-8.59a1.44,1.44 0 0 1 2.25,0c1.6,1.59 0.88,3 0.65,3.31l0,0s0,0 0,0a31,31 0 0 1 -3.13,3.92c-3.61,3.58 -5.8,3.46 -7.32,2.95l0.03,0zm13.09,0c-1.8,0.6 -2.37,0 -2.55,-0.45l0,-0.07a30.42,30.42 0 0 0 2,-2.41l2.09,1.46a3.06,3.06 0 0 1 -1.57,1.47l0.03,0zm21.24,-16.94l-0.09,0l-15.07,-12.25a2,2 0 0 0 -2.49,3.08l16.06,13.1l0.06,0a0.14,0.14 0 0 1 0,0.07a3,3 0 0 1 -1.12,2.45c-1.32,1.33 -3.79,0.66 -4.43,0.46l-15,-10a2,2 0 0 0 -2.77,0.55a2,2 0 0 0 0.56,2.78l14.15,9.43a4,4 0 0 1 -1.51,2.44c-1.47,1 -4.27,0.73 -5.2,0.55l0,0l-3,-2.07a6.55,6.55 0 0 0 -1.93,-6.63a5.49,5.49 0 0 0 -3.56,-1.71a7.33,7.33 0 0 0 -2.35,-5c-3.86,-3.87 -9.1,-4 -12.73,-0.39c-0.16,0.15 -0.33,0.33 -0.52,0.53a9,9 0 0 0 -1.94,-2.67a9.69,9.69 0 0 0 -5.6,-3.11c-2.5,-0.31 -5,0.73 -7.35,3.11l-3.05,3a6.53,6.53 0 0 0 -3.35,-2.68a18.58,18.58 0 0 0 -1.91,-0.54a72.23,72.23 0 0 0 3.2,-8.83c1.4,-4.88 2.22,-17 2.5,-22a46.05,46.05 0 0 0 10.32,-1.08c1.28,-0.26 2.94,-0.47 4.48,-0.64a9.5,9.5 0 0 0 -0.79,1.9a13.35,13.35 0 0 1 -1.58,3.34a39.21,39.21 0 0 1 -2.27,3.31c-1.76,2.38 -3.41,4.62 -2,7.15a6.76,6.76 0 0 0 6.34,3.57c4.29,-0.14 8.99,-3.56 9.89,-5.39s3.49,-5.38 4.39,-6c2.18,-1.45 3.73,-1.86 6.13,-0.06c3.27,2.49 26.88,22.69 28.48,24.32a3.77,3.77 0 0 1 0,4.77c-1.73,1.72 -4.92,1.14 -4.95,1.14zm21.35,-24.51c3.27,11.78 5.52,26.65 -2.35,30.59a8.68,8.68 0 0 1 -7,-0.3a9,9 0 0 1 -1.86,-1.15c0.14,0 0.28,0 0.43,0a8,8 0 0 0 5.78,-3.11c2.59,-3.23 1.78,-15.66 -0.45,-25.33a16.17,16.17 0 0 0 -8.33,-11.26c2.45,-0.39 10.6,-0.78 13.78,10.56z"/>
 </g>
</svg>